<svg
        xmlns="http://www.w3.org/2000/svg"
        viewBox="0 0 24 24"
        fill="currentColor"
        class="github-icon"
        width="24"
        height="24"
>
    <path
            d="M12 .296c-6.63 0-12 5.373-12 12 0 5.303 3.438 9.8 8.205 11.385.6.113.82-.258.82-.577 0-.286-.011-1.243-.017-2.254-3.338.724-4.042-1.415-4.042-1.415-.546-1.387-1.333-1.757-1.333-1.757-1.09-.744.082-.729.082-.729 1.205.085 1.84 1.237 1.84 1.237 1.07 1.835 2.807 1.304 3.492.997.108-.775.42-1.305.763-1.605-2.665-.305-5.466-1.334-5.466-5.931 0-1.31.467-2.38 1.236-3.222-.124-.304-.535-1.527.116-3.183 0 0 1.008-.323 3.3 1.231.957-.266 1.984-.399 3.004-.404 1.02.005 2.048.138 3.006.404 2.29-1.554 3.296-1.231 3.296-1.231.653 1.656.242 2.879.118 3.183.772.842 1.235 1.912 1.235 3.222 0 4.61-2.804 5.624-5.475 5.922.431.371.815 1.104.815 2.223 0 1.606-.015 2.9-.015 3.293 0 .322.216.694.825.576C20.565 22.092 24 17.592 24 12.296c0-6.627-5.373-12-12-12z"
    />
</svg>